<svg xmlns="http://www.w3.org/2000/svg" viewBox="0 0 1920 1080"><g transform="
          rotate(6 960 540) 
          translate(-173.1362635303376 -97.3891482358149)
          scale(1.1803502745107683)
        "><rect width="1920" height="1080" fill="rgb(255, 255, 255)"></rect><g transform="translate(0, 0)"><path fill="rgb(207, 207, 207)" fill-opacity="1" d="M0,264.707L80,262.556C160,260.405,320,256.103,480,255.436C640,254.769,800,257.737,960,258.071C1120,258.405,1280,256.104,1440,227.387C1600,198.67,1760,143.537,1840,115.971L1920,88.404L1920,1080L1840,1080C1760,1080,1600,1080,1440,1080C1280,1080,1120,1080,960,1080C800,1080,640,1080,480,1080C320,1080,160,1080,80,1080L0,1080Z"></path></g><g transform="translate(0, 270)"><path fill="rgb(160, 160, 160)" fill-opacity="1" d="M0,225.866L80,188.912C160,151.959,320,78.052,480,73.86C640,69.669,800,135.193,960,151.514C1120,167.835,1280,134.953,1440,104.517C1600,74.081,1760,46.091,1840,32.097L1920,18.102L1920,810L1840,810C1760,810,1600,810,1440,810C1280,810,1120,810,960,810C800,810,640,810,480,810C320,810,160,810,80,810L0,810Z"></path></g><g transform="translate(0, 540)"><path fill="rgb(112, 112, 112)" fill-opacity="1" d="M0,188.756L80,170.571C160,152.386,320,116.015,480,97.811C640,79.606,800,79.568,960,105.956C1120,132.344,1280,185.158,1440,213.523C1600,241.888,1760,245.804,1840,247.762L1920,249.72L1920,540L1840,540C1760,540,1600,540,1440,540C1280,540,1120,540,960,540C800,540,640,540,480,540C320,540,160,540,80,540L0,540Z"></path></g><g transform="translate(0, 810)"><path fill="rgb(64, 64, 64)" fill-opacity="1" d="M0,44.186L80,50.212C160,56.237,320,68.289,480,94.704C640,121.12,800,161.899,960,190.747C1120,219.596,1280,236.513,1440,225.386C1600,214.259,1760,175.089,1840,155.504L1920,135.919L1920,270L1840,270C1760,270,1600,270,1440,270C1280,270,1120,270,960,270C800,270,640,270,480,270C320,270,160,270,80,270L0,270Z"></path></g></g></svg>